<?xml version="1.0" encoding="UTF-8" standalone="no"?>
<!-- Created with Inkscape (http://www.inkscape.org/) -->

<svg
   xmlns:dc="http://purl.org/dc/elements/1.1/"
   xmlns:cc="http://creativecommons.org/ns#"
   xmlns:rdf="http://www.w3.org/1999/02/22-rdf-syntax-ns#"
   xmlns:svg="http://www.w3.org/2000/svg"
   xmlns="http://www.w3.org/2000/svg"
   xmlns:sodipodi="http://sodipodi.sourceforge.net/DTD/sodipodi-0.dtd"
   xmlns:inkscape="http://www.inkscape.org/namespaces/inkscape"
   width="91.317253mm"
   height="117.32533mm"
   viewBox="0 0 323.56507 415.71965"
   id="svg10000"
   version="1.1"
   inkscape:version="0.91 r13725"
   sodipodi:docname="horror face.svg">
  <defs
     id="defs10002" />
  <sodipodi:namedview
     id="base"
     pagecolor="#ffffff"
     bordercolor="#666666"
     borderopacity="1.0"
     inkscape:pageopacity="0.0"
     inkscape:pageshadow="2"
     inkscape:zoom="0.1726436"
     inkscape:cx="2788.1803"
     inkscape:cy="94.74828"
     inkscape:document-units="px"
     inkscape:current-layer="layer1"
     showgrid="false"
     inkscape:window-width="1366"
     inkscape:window-height="705"
     inkscape:window-x="-8"
     inkscape:window-y="-8"
     inkscape:window-maximized="1"
     fit-margin-top="0"
     fit-margin-left="0"
     fit-margin-right="0"
     fit-margin-bottom="0" />
  <metadata
     id="metadata10005">
    <rdf:RDF>
      <cc:Work
         rdf:about="">
        <dc:format>image/svg+xml</dc:format>
        <dc:type
           rdf:resource="http://purl.org/dc/dcmitype/StillImage" />
        <dc:title></dc:title>
      </cc:Work>
    </rdf:RDF>
  </metadata>
  <g
     inkscape:label="Layer 1"
     inkscape:groupmode="layer"
     id="layer1"
     transform="translate(-1428.3964,-270.07202)">
    <rect
       style="opacity:1;fill:#000000;fill-opacity:1;fill-rule:evenodd;stroke:none;stroke-width:4.5;stroke-linecap:round;stroke-miterlimit:4;stroke-dasharray:none;stroke-opacity:1"
       id="rect10390"
       width="323.56506"
       height="415.71967"
       x="1428.3964"
       y="270.07202" />
    <path
       style="fill:#e6e6e6"
       d="m 1649.3789,288.75 c -0.8074,0.0505 -1.8272,0.47923 -2.5742,1.13086 -1.5462,1.3488 -1.9399,1.37286 -2.6895,0.16016 -0.7389,-1.19561 -1.1932,-1.13522 -2.875,0.38671 -1.0989,0.9945 -2.5139,1.49202 -3.1425,1.10352 -0.6386,-0.3947 -1.8087,0.24462 -2.6524,1.44922 -0.8306,1.1858 -2.3213,2.02112 -3.3125,1.85742 -0.9912,-0.1637 -2.6871,0.50237 -3.7695,1.48047 -1.5366,1.3886 -2.5256,1.5669 -4.5098,0.8125 -2.0353,-0.7738 -2.886,-0.58388 -4.2734,0.94922 -0.9528,1.0528 -2.0566,1.71385 -2.4531,1.46875 -0.3966,-0.245 -1.7652,0.66544 -3.0411,2.02344 -1.2758,1.3581 -3.0918,2.46875 -4.0371,2.46875 -0.9453,0 -1.9803,0.67976 -2.2988,1.50976 -1.2122,3.159 -15.6348,0.45992 -15.6348,-2.92578 0,-0.5642 -0.4781,-0.50433 -1.1211,0.13867 -1.3918,1.3918 -3.8392,0.51887 -6.0957,-2.17383 -1.0242,-1.2222 -1.73,-1.53047 -1.75,-0.76367 -0.027,1.03214 -0.476,1.04173 -2.2832,0.0488 -1.2375,-0.68 -3.115,-1.37939 -4.1718,-1.55469 -1.0569,-0.1753 -2.4752,-0.77979 -3.1524,-1.34179 -0.8605,-0.7142 -1.3663,-0.63132 -1.6816,0.27148 -0.3395,0.9719 -0.9553,0.84366 -2.4883,-0.51562 -1.1206,-0.99371 -3.2128,-1.93284 -4.6484,-2.08594 -1.4357,-0.153 -2.9096,-0.57561 -3.2754,-0.94141 -2.0922,-2.0922 -1.998,-0.0975 0.1562,3.31445 1.3819,2.1891 2.5117,4.57293 2.5117,5.29883 0,0.726 0.4787,1.79902 1.0625,2.38281 0.5838,0.5838 1.1463,2.65683 1.25,4.60743 0.144,2.7083 0.483,3.30252 1.4375,2.51562 0.8687,-0.7162 1.288,-0.6884 1.375,0.0918 1.4171,12.7241 0.8411,25.12305 -1.1679,25.12305 -0.4518,0 -1.1079,-0.9 -1.4571,-2 -0.3491,-1.1 -1.019,-2 -1.4882,-2 -0.4693,0 -1.1494,-1.35 -1.5118,-3 -0.3624,-1.65 -1.288,-3 -2.0566,-3 -0.7686,0 -2.1378,-1.13032 -3.043,-2.51172 -0.9051,-1.3815 -2.7159,-2.78118 -4.0234,-3.10938 -1.3075,-0.3281 -2.377,-1.22093 -2.377,-1.98633 0,-0.7654 -0.5625,-1.39253 -1.25,-1.39453 -0.6875,0 -2.136,-1.3254 -3.2187,-2.9414 -1.3499,-2.01478 -2.3295,-2.63818 -3.1172,-1.98438 -0.7583,0.6293 -1.5758,0.43775 -2.4043,-0.56055 -0.6903,-0.8321 -1.8195,-1.51171 -2.5098,-1.51171 -0.6903,0 -1.8316,-0.69493 -2.5371,-1.54493 -0.7054,-0.85 -1.8733,-1.32016 -2.5957,-1.04297 -0.7223,0.27711 -1.6628,-0.048 -2.0898,-0.7246 -0.9887,-1.5655 -5.7791,-3.6875 -8.3242,-3.6875 -1.0742,0 -1.9532,-0.675 -1.9532,-1.5 0,-1.49536 -1.0102,-1.87736 -4.1601,-1.56836 -0.9138,0.09 -1.9672,-0.32864 -2.3399,-0.93164 -0.4836,-0.7826 -1.0925,-0.75268 -2.1289,0.10742 -1.1796,0.979 -2.1302,0.56633 -5.0625,-2.20117 -1.985,-1.8736 -3.2739,-2.81927 -2.8652,-2.10157 0.5808,1.0199 -0.3142,1.20541 -4.0996,0.84961 -2.6636,-0.2503 -5.6498,-0.78043 -6.6348,-1.17773 -1.1987,-0.4835 -1.6947,-0.30579 -1.5,0.53711 0.3233,1.3998 -4.6336,3.14311 -6.6914,2.35351 -0.7228,-0.2774 -1.599,-0.0417 -1.9473,0.52149 -0.3482,0.5634 -1.3108,0.76301 -2.1386,0.44531 -0.8279,-0.3176 -2.3726,0.20762 -3.4317,1.16602 -1.059,0.9584 -2.6337,1.47117 -3.5,1.13867 -0.8911,-0.3419 -1.807,-8.9e-4 -2.1093,0.78711 -0.294,0.7661 -1.6202,1.66544 -2.9454,1.99804 -1.3252,0.3326 -3.0927,1.92632 -3.9277,3.54102 -0.835,1.6147 -2.3051,3.39448 -3.2676,3.95508 -1.3355,0.7779 -0.3711,1.02563 4.0684,1.04883 5.2166,0.027 5.7561,-0.15963 5.2266,-1.82813 -0.9252,-2.915 1.987,-4.75567 5.4531,-3.44726 2.0255,0.76451 3.1475,0.76068 3.9199,-0.0117 0.7762,-0.77612 1.082,-0.75599 1.082,0.0703 0,0.73491 1.3582,1.00951 3.75,0.75781 2.0625,-0.217 4.1033,-0.42142 4.5352,-0.45312 0.4318,-0.032 0.2979,-0.96673 -0.2969,-2.07813 -0.5948,-1.1113 -0.8224,-2.43897 -0.5058,-2.95117 0.6579,-1.0645 8.3235,1.98684 12.5468,4.99414 1.7488,1.2453 2.9365,1.57912 3.166,0.89062 0.2297,-0.68907 1.8242,-0.24209 4.254,1.19141 2.1374,1.2612 4.6658,2.34982 5.6171,2.41992 0.9514,0.07 2.8486,1.42893 4.2168,3.01953 1.9392,2.2544 2.788,2.64262 3.8516,1.76172 1.8458,-1.5287 7.2065,1.12768 14.0898,6.98438 2.9018,2.4689 6.1508,4.65351 7.2207,4.85351 1.9465,0.3638 10.4377,10.4054 10.5137,12.4336 0.022,0.5916 1.166,2.13213 2.541,3.42383 1.375,1.2917 2.5,2.89269 2.5,3.55859 0,1.875 4.1719,4.11168 7.5,4.02148 1.7318,-0.047 4.5692,-1.33578 6.7129,-3.05078 3.0075,-2.4059 3.599,-3.43409 3.1055,-5.40039 -0.3468,-1.3819 -0.2111,-2.18222 0.3144,-1.85742 0.5182,0.3202 0.8859,-1.47831 0.8399,-4.09961 -0.045,-2.5693 0.2755,-5.16347 0.7129,-5.76367 0.4374,-0.6001 0.687,-4.4251 0.5547,-8.5 -0.3003,-9.2454 1.3605,-10.22519 2.8965,-1.70899 0.6249,3.465 1.6999,9.22579 2.3886,12.80079 1.4115,7.3265 1.8441,22.2149 0.7559,26 -0.3953,1.375 -1.844,3.70388 -3.2207,5.17578 l -2.5039,2.67578 4.4726,-0.49219 c 2.806,-0.3086 4.4707,-0.0947 4.4707,0.57422 0,0.5861 0.9662,1.06641 2.1465,1.06641 2.0858,0 2.0753,-0.0659 -0.3828,-2.34375 -3.3753,-3.1281 -4.5207,-6.65625 -2.1601,-6.65625 0.9556,0 2.5625,0.74399 3.5683,1.65429 2.0214,1.8293 2.5603,0.47822 0.5938,-1.48828 -1.7996,-1.8002 -1.7939,-7.19352 0.012,-9.94922 1.2643,-1.9296 1.3147,-2.54211 0.2578,-3.19531 -3.096,-1.9134 -0.4134,-19.05942 4.6758,-29.88672 4.2262,-8.9915 6.0358,-8.57125 4.3242,1.00195 -0.6258,3.5 -1.5124,9.06329 -1.9707,12.36329 -0.4584,3.3 -1.3,7.17608 -1.8711,8.61328 -1.1003,2.7685 -0.4866,10.58736 0.8984,11.44336 0.4518,0.2792 0.5854,1.12124 0.2969,1.87304 -0.2885,0.7517 -0.044,1.66425 0.543,2.02735 0.5874,0.3631 1.0683,1.98406 1.0683,3.60156 0,1.6176 0.3375,2.94522 0.75,2.94922 1.2713,0.013 3.09,4.88626 2.5684,6.88086 -0.4318,1.6512 1.6219,3.14635 5.5312,4.03125 0.1918,0.043 -0.62,-1.55996 -1.8027,-3.56446 -2.3647,-4.0078 -2.0995,-7.47317 0.4121,-5.38867 0.9475,0.7863 0.7337,-0.26183 -0.6289,-3.08203 -1.8501,-3.8291 -2.515,-5.79306 -2.7539,-8.13476 -0.042,-0.4125 -0.5523,-0.75 -1.1348,-0.75 -0.5823,0 -0.8396,0.35716 -0.5703,0.79296 0.2694,0.4358 -0.49,0.85595 -1.6894,0.93555 -2.0428,0.1355 -2.0078,-8e-5 0.5683,-2.08008 1.5125,-1.2235 2.75,-3.11839 2.75,-4.21289 0,-1.0944 0.7345,-3.03866 1.6309,-4.31836 0.8964,-1.2798 1.7105,-4.19255 1.8105,-6.47265 0.2018,-4.6171 2.4527,-9.14391 7.2911,-14.66211 1.7776,-2.0274 3.0472,-3.86865 2.8222,-4.09375 -0.225,-0.225 0.683,-0.92489 2.0176,-1.55469 3.2424,-1.5301 3.8657,-0.16163 1.3711,3.00977 -2.1212,2.6966 -4.3247,9.30027 -5.418,16.23437 -0.4825,3.0603 -0.2537,4.40225 0.916,5.37305 0.8574,0.7116 1.6118,2.47677 1.6758,3.92187 0.075,1.6941 0.2774,2.00526 0.5723,0.87696 0.6808,-2.6054 1.7076,-2.1338 3.2656,1.5 l 1.3945,3.25 0.3887,-3.25 c 0.3226,-2.6945 0.8156,-3.25 2.8848,-3.25 1.4091,0 2.2259,0.4354 1.8769,1 -0.3399,0.55 -0.2535,0.99618 0.1914,0.99218 0.445,0 1.8791,-1.5788 3.1875,-3.5 1.3084,-1.9213 2.7499,-3.49218 3.2032,-3.49218 0.4534,0 1.7349,-2.05872 2.8476,-4.57422 1.1127,-2.5155 2.436,-4.31816 2.9414,-4.00586 0.5054,0.3124 1.1888,-0.13354 1.5176,-0.99024 0.3287,-0.85668 1.0535,-1.27438 1.6113,-0.92968 0.5578,0.3447 1.2888,-0.0904 1.625,-0.9668 0.3475,-0.9055 1.3169,-1.3768 2.2442,-1.0918 1.1299,0.3473 2.6257,-1.01549 4.8652,-4.43359 4.8436,-7.3926 16.2656,-15.82481 16.2656,-12.00781 0,0.55 -0.434,1 -0.9648,1 -1.5197,0 -8.0352,6.06556 -8.0352,7.48046 0,0.7007 0.675,1.83484 1.5,2.51954 1.2217,1.0139 1.5,0.9617 1.5,-0.2793 0,-2.2102 6.8682,-6.00793 11.3321,-6.26563 2.108,-0.1217 4.3014,-0.68816 4.873,-1.25976 0.5716,-0.57163 1.6141,-0.81833 2.3164,-0.54883 0.7023,0.2695 1.5744,0.01 1.9375,-0.57812 0.8958,-1.44942 3.5103,-1.33444 6.6289,0.29296 2.1492,1.1217 2.8921,1.12725 4.3965,0.0274 2.6179,-1.9142 3.9674,-0.55155 1.8301,1.84765 -1.8072,2.0285 -1.8003,2.02943 1.2187,0.48633 2.8729,-1.4685 3.1464,-1.43001 5.2051,0.70899 1.6435,1.7076 1.8914,2.53821 1.0176,3.41211 -0.8739,0.8739 -0.6103,1.15625 1.084,1.15625 2.7387,0 9.1659,6.71953 12.1582,12.71093 2.4168,4.8391 4.3335,5.69027 3.4648,1.53907 -2.2337,-10.6739 -3.148,-12.60708 -8.7129,-18.42188 -0.9625,-1.0057 -1.75,-2.50312 -1.75,-3.32812 0,-0.825 -0.4255,-1.5 -0.9472,-1.5 -1.3238,0 -5.517,-4.0606 -6.9004,-6.6836 -1.9281,-3.6554 -1.38,-4.31002 2.3164,-2.76562 1.9073,0.797 4.2698,1.4589 5.25,1.4707 1.7281,0.021 6.9791,6.36982 8.5625,10.35352 0.5375,1.3523 1.1023,1.64188 1.8144,0.92968 1.4452,-1.4452 -1.6545,-10.57197 -4.4297,-13.04297 -4.0394,-3.5975 -11.5834,-5.65421 -20.666,-5.63671 -9.8219,0.019 -18.8152,1.00242 -20.4004,2.23242 -0.6048,0.4693 -1.9996,1.09276 -3.0996,1.38476 -1.1,0.2921 -2.7477,0.839 -3.6621,1.2168 -1.0941,0.452 -1.7779,0.14883 -2,-0.88867 -0.28,-1.3082 -1.3593,-1.03226 -6.3379,1.62305 -3.3,1.76008 -7.35,3.3235 -9,3.4746 -1.65,0.1511 -5.42,0.57586 -8.3789,0.94336 -7.1771,0.8912 -6.618,-0.61832 2.6387,-7.11132 3.9205,-2.75 7.1545,-5.37047 7.1855,-5.82227 0.074,-1.0857 -2.105,-3.22212 -3.9628,-3.88672 -0.2038,-0.073 -0.4497,-0.0988 -0.7188,-0.082 z m -17.0859,8.98438 c 1.1779,0.0125 1.8222,0.53417 1.8222,1.57617 0,2.162 -6.2684,10.72937 -7.8535,10.73437 -0.9052,0 -3.3581,1.5776 -5.4512,3.5 -2.0931,1.9223 -4.2091,3.4961 -4.7011,3.4961 -0.4921,0 -1.2884,0.7027 -1.7696,1.5625 -0.7907,1.41348 -0.9984,1.41366 -2.164,0.01 -1.0682,-1.2871 -0.9325,-2.31055 0.7871,-5.96875 2.8091,-5.9762 5.606,-8.79063 12.3828,-12.45703 3.0373,-1.64323 5.433,-2.46922 6.9473,-2.45312 z m -55.2618,5.07226 c 0.1902,0.007 0.3973,0.0303 0.6211,0.0684 4.0961,0.6966 9.8661,7.91612 8.7247,10.91602 -0.8015,2.1068 -2.1548,1.43567 -6.8458,-3.39063 -4.3267,-4.45256 -5.3407,-7.70615 -2.5,-7.59375 z m -117.7031,12.30859 c -0.3886,-0.0114 -0.9698,0.28824 -1.4785,0.80079 -0.9803,0.9876 -0.8666,1.10324 0.5586,0.56054 0.9862,-0.3755 1.5422,-0.93434 1.2344,-1.24218 -0.077,-0.077 -0.185,-0.11515 -0.3145,-0.11915 z m 132.3008,5.92579 c 0.2181,0.007 0.5279,0.0558 0.9356,0.13476 1.0369,0.2009 2.0718,0.92774 2.3007,1.61524 0.594,1.7839 -1.2595,1.54596 -2.8457,-0.36524 -0.8699,-1.0482 -1.045,-1.40526 -0.3906,-1.38476 z m -139.3379,0.0293 c -0.5289,0.0968 -1.2195,0.64579 -1.5683,1.55469 -0.3737,0.9739 -0.1507,1.431 0.58,1.1875 0.6535,-0.2179 1.3663,-0.93088 1.584,-1.58398 0.3,-0.89995 -0.067,-1.25501 -0.5957,-1.15821 z m 250.1152,4.26953 c -0.5063,0.004 -1.0617,0.0985 -1.7285,0.25782 -1.6843,0.4026 -4.4125,0.8108 -6.0625,0.9082 -5.0334,0.2971 -10.8057,3.64532 -15.0039,8.69922 -2.1964,2.644 -4.5745,4.81426 -5.2832,4.82226 -0.7088,0.01 -3.1616,1.81368 -5.4511,4.01368 -2.2896,2.2 -4.936,4 -5.879,4 -1.7252,0 -7.8828,6.89291 -7.8828,8.82421 0,0.6932 1.0763,0.72777 3.2461,0.10547 5.8068,-1.6654 13.2194,-1.13992 16.1211,1.14258 l 2.6328,2.07227 2.6758,-2.10157 c 1.8848,-1.4826 2.882,-1.76181 3.3867,-0.94531 0.3936,0.6368 1.2167,0.84851 1.8282,0.47071 0.6115,-0.37791 1.1093,-0.0752 1.1093,0.67187 0,0.95489 1.0085,1.24079 3.3887,0.96289 1.8623,-0.2174 4.3373,0.11413 5.5,0.73633 1.743,0.9328 2.1113,0.84884 2.1113,-0.47266 0,-1.2018 0.5628,-1.42689 2.25,-0.90429 3.7108,1.1494 11.75,5.41447 11.75,6.23437 0,0.4202 1.35,1.27367 3,1.89649 2.2684,0.85617 3,1.76284 3,3.71874 0,1.42283 0.4747,2.5879 1.0528,2.5879 0.5781,0 1.7093,1.575 2.5136,3.5 0.8043,1.925 1.6455,3.5 1.8711,3.5 0.2252,0 0.2591,-6.81142 0.074,-15.13672 -0.1883,-8.486 -0.7692,-15.4062 -1.3223,-15.75 -1.4497,-0.9009 -10.1875,-14.41761 -10.1875,-15.76368 -10e-4,-0.63249 -1.6614,-2.80979 -3.6895,-4.83789 -2.4086,-2.40855 -3.5006,-3.22389 -5.0215,-3.21289 z m -197.6484,7.70704 c -1.8643,0 -1.6223,0.49594 1.8574,3.77734 2.2,2.0746 4.6364,3.57042 5.4141,3.32422 0.8342,-0.2639 1.1374,-1.2e-4 0.7402,0.64258 -0.3705,0.5994 0.4558,1.97875 1.836,3.06445 4.2952,3.3786 2.3086,6.0126 -2.0489,2.7168 -1.0676,-0.8075 -2.6732,-1.4825 -3.5683,-1.5 -0.8952,-0.017 -2.1884,-0.70625 -2.8731,-1.53125 -1.4076,-1.696 -5.5632,-2.0157 -6.5,-0.5 -0.3399,0.55 -0.067,1 0.6075,1 0.6744,0 0.9654,0.26117 0.6464,0.58007 -0.3189,0.3189 -1.6838,-0.14324 -3.0332,-1.02734 -2.3997,-1.5723 -2.4433,-1.55238 -1.9707,0.91992 0.3971,2.077 0.096,2.52735 -1.6914,2.52735 -1.3899,0 -1.9187,0.41679 -1.4629,1.15429 0.4421,0.7153 0.2739,0.88351 -0.4414,0.44141 -0.635,-0.3924 -1.1543,-1.3618 -1.1543,-2.1543 0,-1.81254 -1.088,-1.82943 -3.5175,-0.0527 -1.0445,0.7638 -2.479,1.16518 -3.1895,0.89258 -2.0452,-0.7849 -1.5012,1.53678 0.627,2.67578 1.3982,0.7483 2.0337,0.68995 2.3418,-0.21485 0.3079,-0.9039 1.5505,-0.64638 4.5664,0.94922 3.5444,1.875 4.3462,1.99163 5.539,0.79883 0.7671,-0.7671 1.58,-1.20912 1.8067,-0.98242 0.2267,0.2267 4.4428,0.5925 9.3691,0.8125 7.7103,0.3443 10.2792,0.95923 18.457,4.42773 11.148,4.7283 12.4499,5.03476 8.5176,2.00196 -3.0289,-2.336 -4.1179,-3.4028 -11.3476,-11.125 -2.3814,-2.5437 -4.7911,-4.625 -5.3555,-4.625 -0.5645,0 -2.7312,-1.35 -4.8145,-3 -2.0833,-1.65 -4.3,-3 -4.9257,-3 -0.6256,0 -1.3963,-0.675 -1.7129,-1.5 -0.3165,-0.825 -1.5401,-1.49716 -2.7188,-1.49414 z m 195.4981,11.21679 c 2.6197,-0.0688 3.8602,1.03399 1.1093,2.80274 -1.5698,1.0094 -1.5441,1.05542 0.25,0.45312 1.1,-0.3693 2.5045,-0.87901 3.1211,-1.13281 0.6166,-0.2539 1.8386,0.25651 2.7149,1.13281 0.8762,0.8763 1.7217,1.5353 1.8789,1.46485 0.1571,-0.0711 1.4855,0.41803 2.9511,1.08593 2.7308,1.2451 4.3595,4.52665 2.7403,5.52735 -1.2922,0.7986 -1.1234,2.49166 0.2187,2.19336 0.6188,-0.1375 1.3319,0.3125 1.584,1 0.5248,1.4312 -1.3015,1.71583 -2.1543,0.33593 -0.3103,-0.5021 -2.2592,-1.1989 -4.3301,-1.54883 -2.0708,-0.34989 -4.4291,-1.04567 -5.2402,-1.54687 -1.2537,-0.7748 -1.1818,-1.12474 0.4746,-2.33594 1.6943,-1.2389 0.9754,-1.25747 -5.5058,-0.13867 -4.0993,0.7077 -7.9032,0.92046 -8.4532,0.47266 -0.55,-0.44788 -2.9125,-0.46306 -5.25,-0.0352 -2.3375,0.4282 -4.2386,0.50081 -4.2246,0.16211 0.031,-0.7503 8.3382,-6.34003 12.4746,-8.39453 2.0005,-0.99364 4.0689,-1.45675 5.6407,-1.49805 z m -10.6504,1.77735 c 0.863,0 -2.4864,2.6414 -6.7403,5.3164 -1.5125,0.95103 -2.749,1.38213 -2.748,0.95703 0,-0.8412 8.218,-6.27343 9.4883,-6.27343 z m -6.9942,1.31054 c 0.086,-0.0112 0.1449,-0.004 0.1739,0.0254 0.2673,0.2673 -1.2288,1.65032 -3.3243,3.07422 -3.5049,2.3816 -5.3457,3.14756 -5.3457,2.22266 0,-0.70538 7.2101,-5.15375 8.4961,-5.32227 z m -204.4785,2.60938 c -0.749,-0.10427 -1.1236,1.31892 -0.4863,2.78711 0.7436,1.71322 0.7985,1.71164 1.2129,-0.0352 0.2385,-1.0055 0.1673,-2.09242 -0.1563,-2.41601 l 0,-0.002 c -0.2048,-0.20482 -0.3975,-0.30988 -0.5703,-0.33398 z m 30.5938,4.08008 c -0.5944,0 0.4879,0.873 2.4043,1.9414 3.4841,1.9424 4.9843,2.43356 4.9843,1.63086 0,-0.6179 -6.111,-3.57226 -7.3886,-3.57226 z m -38.3282,2.12109 c -0.2292,-0.0144 -0.2832,0.30964 -0.2832,0.96484 0,2.0545 2.34,4.39442 2.8536,2.85352 0.2076,-0.6247 -0.3476,-1.86315 -1.2364,-2.75195 -0.6992,-0.69925 -1.1048,-1.05201 -1.334,-1.06641 z m -6.4648,1.87891 c -0.5717,0 0.022,0.88509 1.3203,1.96679 2.5053,2.0872 2.8613,2.28542 2.8613,1.60352 0,-0.862 -3.1721,-3.57031 -4.1816,-3.57031 z m 53.7207,0.26562 c -0.088,-0.002 -0.1506,0.0115 -0.1816,0.043 -0.2465,0.2465 1.2602,1.37195 3.3476,2.50195 3.8813,2.1011 5.2949,2.55769 5.2949,1.70899 0,-0.70191 -7.152,-4.23021 -8.4609,-4.25391 z m -58.4805,5.76953 c -0.9992,0.023 -0.661,0.54885 0.9414,1.46485 3.2721,1.87052 5.0445,1.84719 2.5586,-0.0332 l 0,0.002 c -1.0676,-0.8075 -2.6426,-1.4531 -3.5,-1.4336 z m 81.5625,1.39453 c -0.226,0.038 -0.4486,0.27279 -0.709,0.68555 -0.5775,0.9155 -0.3129,1.8056 0.7832,2.625 2.2141,1.655 2.7341,0.92914 1.2793,-1.78906 -0.5903,-1.103 -0.9769,-1.58489 -1.3535,-1.52149 z m 98.1719,4.81055 c -0.1646,0.0159 -0.346,0.0515 -0.543,0.10547 -0.9625,0.264 -3.4495,0.76639 -5.5273,1.11719 -2.0778,0.3508 -3.5179,1.06057 -3.1992,1.57617 0.5599,0.906 -1.7284,3.61516 -6.1563,7.28906 -1.4798,1.2278 -2.9496,1.56276 -4.8027,1.09766 -2.3098,-0.5797 -2.5879,-1.04538 -2.0586,-3.45508 0.5501,-2.5046 0.2903,-2.85568 -2.5723,-3.48438 -1.7512,-0.3847 -3.4648,-0.28012 -3.8086,0.23438 -0.3437,0.5145 -2.65,0.9783 -5.125,1.0293 -2.475,0.051 -5.7876,0.11658 -7.3613,0.14648 -1.5737,0.03 -3.7587,-0.42482 -4.8555,-1.01172 -2.2794,-1.2199 -7.4014,-0.48621 -11.4902,1.64649 -3.0885,1.611 -11.293,2.00236 -11.293,0.53906 0,-0.5107 0.675,-1.60274 1.5,-2.42774 2.267,-2.26697 1.9368,-2.47207 -3.75,-2.32617 -2.8875,0.074 -7.1258,-0.36079 -9.4199,-0.9668 -3.6999,-0.97738 -4.1051,-0.91886 -3.5801,0.52344 0.3256,0.8943 2.639,3.7615 5.1407,6.3711 2.5016,2.6095 5.0754,5.7595 5.7187,7 1.1273,2.1734 0.7365,7.36 -1.0449,13.8789 -0.6204,2.2704 -0.358,2.71142 1.9512,3.29102 1.7166,0.4308 2.4768,1.16329 2.1347,2.05469 -0.2923,0.7617 0.1179,1.92257 0.9102,2.58007 2.16,1.7927 1.7345,4.89703 -0.8106,5.91993 -1.2375,0.4975 -1.7033,0.93199 -1.0351,0.96679 0.6681,0.035 1.7172,1.00139 2.3301,2.14649 0.9051,1.6912 0.7709,2.34265 -0.7149,3.46875 -1.079,0.8178 -1.3175,1.39917 -0.5801,1.41797 0.6875,0.017 1.25,0.89306 1.25,1.94726 0,1.0541 0.5118,2.08662 1.1368,2.29492 0.8075,0.2691 0.7351,1.03443 -0.25,2.64063 -1.2214,1.9913 -1.1786,2.3779 0.3632,3.2539 2.4779,1.4077 2.1853,4.53054 -0.5,5.33594 -2.0227,0.6068 -2.0676,0.74769 -0.4511,1.39649 0.9889,0.3969 2.3516,1.8328 3.0293,3.1914 1.1887,2.38321 1.5877,2.47071 11.3671,2.47071 9.3496,0 10.337,0.18752 12.7207,2.42382 1.4484,1.3581 2.5992,3.5571 2.6192,5 0.02,1.4166 0.6788,3.70118 1.4648,5.07618 1.8736,3.276 1.9038,7 0.059,7 -0.7925,0 -1.7187,-0.45 -2.0586,-1 -1.0194,-1.6493 -3.3227,-1.13043 -3.9648,0.89257 -0.6877,2.1667 -3.6843,3.25012 -5.6406,2.04102 -0.7452,-0.4605 -1.8908,-0.35201 -2.6114,0.24609 -0.706,0.5859 -1.2832,0.73002 -1.2832,0.32032 0,-0.4097 -0.675,-0.1847 -1.5,0.5 -0.825,0.6847 -1.5123,0.85294 -1.5293,0.37304 -0.017,-0.4798 -0.5001,-0.0665 -1.0742,0.91992 -0.6857,1.1786 -1.7055,1.5852 -2.9707,1.1836 -1.08,-0.3427 -1.9258,-0.14352 -1.9258,0.45508 0,0.5871 -0.3375,0.98175 -0.75,0.87695 -2.0998,-0.5333 -7.3993,1.60012 -8.3398,3.35742 -1.709,3.1934 -0.4806,3.16543 4.8418,-0.10937 6.3876,-3.9304 9.1847,-4.02044 9.4316,-0.30664 0.3674,5.5232 -0.2937,8.73805 -2.2168,10.78515 -1.0814,1.1511 -1.9668,2.6272 -1.9668,3.2793 0,0.652 -0.4722,1.18555 -1.0488,1.18555 -0.5765,0 -1.6203,1.36264 -2.3203,3.02734 -1.2683,3.0163 -1.2795,3.0197 -3.1074,1 -1.0088,-1.1147 -2.33,-2.02734 -2.9375,-2.02734 -1.7923,0 -3.6625,-3.84229 -3.0528,-6.27149 0.5408,-2.1548 -2.4586,-6.72851 -4.4121,-6.72851 -0.4402,0 -1.2893,-1.07377 -1.8867,-2.38477 -0.8464,-1.8577 -0.7461,-2.86908 0.4551,-4.58398 2.0873,-2.98007 0.4825,-4.52157 -3.0371,-2.91797 -1.4587,0.6647 -2.6524,1.55587 -2.6524,1.98047 0,0.4247 -0.7979,1.02428 -1.7734,1.33398 -2.5294,0.8028 -6.962,8.05396 -7.7402,12.66016 -0.3643,2.1519 -0.3517,5.74723 0.027,7.99023 0.6603,3.9082 0.7496,3.9915 2.1445,2 3.4133,-4.8732 14.0253,-0.95448 22.8809,8.44922 10.9496,11.6275 20.7501,12.07361 32.3379,1.47461 2.407,-2.2017 4.5855,-4.00195 4.8418,-4.00195 0.2562,0 1.6093,-0.9 3.0078,-2 3.0188,-2.3747 6.7044,-2.54606 10.6387,-0.49414 3.9305,2.0498 4.1751,1.97408 6.6699,-2.0625 3.1779,-5.14192 3.032,-11.74342 -0.416,-18.79102 -1.5176,-3.1017 -2.6157,-6.6554 -2.4395,-7.89648 0.2903,-2.04452 0.8367,-2.2473 5.8203,-2.1543 9.2266,0.1722 16.8487,4.95688 21.8321,13.70508 2.6995,4.7387 2.7287,6.76728 0.1347,8.98828 -2.3983,2.0536 -14.9259,8.69944 -16.4277,8.71484 -0.5716,0.01 -3.1215,1.9183 -5.666,4.25 -7.8499,7.193 -10.4734,8.74024 -14.8321,8.74024 -4.0217,0 -4.0421,0.018 -4.1914,4 -0.082,2.2 -0.195,4.52386 -0.25,5.16406 -0.055,0.6403 1.4146,2.01073 3.2657,3.04492 4.1163,2.2996 5.2097,3.37604 7.666,7.55664 1.0554,1.7963 3.6075,4.3838 5.6719,5.75 3.4478,2.2816 3.6615,2.68798 2.6152,4.98438 -0.6265,1.375 -1.4043,2.54556 -1.7285,2.60156 -0.3243,0.056 -2.2716,0.2539 -4.3262,0.4414 -2.0546,0.1874 -4.5296,0.80418 -5.5,1.36914 -1.3955,0.8125 -0.8088,1.03265 2.8047,1.05665 2.5126,0.017 6.9467,0.7369 9.8516,1.59961 2.905,0.8627 5.9098,1.32668 6.6796,1.03124 0.7699,-0.29538 1.4175,0.0112 1.4375,0.68165 0.02,0.6702 1.9326,2.43096 4.25,3.91406 2.3174,1.4831 6.5754,4.78102 9.4629,7.32812 4.1503,3.6609 5.2735,5.29679 5.3575,7.80469 l 0.1054,3.17188 1.0996,-2.78321 c 1.7661,-4.4753 4.8282,-2.76629 6.1172,3.41407 0.3346,1.60408 1.4319,2.87782 2.8106,3.26562 1.9553,0.55 2.0569,0.80234 0.7597,1.86914 -2.2129,1.8199 -4.3368,6.37947 -3.5586,7.63867 0.3723,0.6025 0.3122,1.10424 -0.1328,1.11524 -0.445,0.011 -2.5624,1.55007 -4.707,3.42187 -3.5567,3.1042 -8.2926,5.48633 -7.1133,3.57813 0.2697,-0.4363 -0.1811,-1.3496 -1,-2.0293 -0.8189,-0.6795 -1.5234,-1.96818 -1.5664,-2.86328 -0.05,-1.0364 -0.2628,-1.17285 -0.584,-0.37695 -0.2774,0.6875 -1.1893,1.25 -2.0273,1.25 -0.9964,0 -1.3086,0.56335 -0.9004,1.62695 0.6549,1.7068 -0.9549,4.37305 -2.6406,4.37305 -0.5433,0 -0.7132,-1.08587 -0.3789,-2.41797 0.7546,-3.0066 -1.198,-3.92569 -3.7012,-1.74219 -1.0827,0.9444 -2.0882,1.19519 -2.5,0.62109 -1.0332,-1.44 -7.7407,-1.15294 -7.4395,0.31836 0.1375,0.6717 -0.2,1.22071 -0.75,1.22071 -0.55,0 -1,-0.40148 -1,-0.89258 0,-1.5102 -3.174,-2.20807 -4.6132,-1.01367 -0.7483,0.6212 -2.0604,0.8608 -2.9141,0.5332 -0.8538,-0.3276 -2.4925,-0.0394 -3.6426,0.63867 -1.6754,0.98809 -2.1848,0.97641 -2.5586,-0.0586 -0.314,-0.8693 -0.8501,-0.9702 -1.6426,-0.3125 -0.6477,0.5376 -2.293,1.1295 -3.6543,1.3164 -1.3613,0.1868 -3.0371,0.69205 -3.7246,1.12305 -0.6875,0.4311 -1.6899,0.51063 -2.2285,0.17773 -1.4315,-0.8847 -4.9837,1.28557 -9.0742,5.54297 -3.1575,3.2863 -3.7183,3.53695 -4.6641,2.08985 -0.8267,-1.265 -1.3585,-1.37366 -2.3007,-0.47266 -0.674,0.64464 -1.7997,0.95114 -2.502,0.68164 -0.7024,-0.2695 -1.5619,-0.0283 -1.9102,0.53516 -0.3482,0.56381 -1.2386,0.79171 -1.9785,0.50781 -0.7399,-0.2839 -2.8402,0.39165 -4.666,1.50195 -2.448,1.4888 -3.6621,1.7349 -4.623,0.9375 -0.9775,-0.8113 -1.3028,-0.68504 -1.3028,0.50586 0,3.18853 5.389,4.36263 15,3.26953 2.475,-0.2814 4.5,-0.57343 4.5,-0.64843 0,-0.075 2.7,-0.26438 6,-0.42188 3.3,-0.1574 7.5328,-0.90656 9.4063,-1.66406 2.5472,-1.0299 3.5074,-1.07962 3.8086,-0.19922 0.517,1.5111 7.8988,-0.94107 7.5547,-2.50977 -0.1601,-0.73037 0.6712,-0.73553 2.7246,-0.0195 2.5156,0.877 3.7504,0.59947 8.3008,-1.86523 4.2695,-2.3124 5.5823,-2.64036 6.5253,-1.63086 0.6493,0.6951 1.155,1.61899 1.125,2.05469 -0.1442,2.0651 -15.3665,11.29297 -18.6289,11.29297 -0.7243,0 -1.3164,0.45 -1.3164,1 0,0.55 -0.8137,1 -1.8086,1 -0.9949,0 -2.6824,0.66125 -3.75,1.46875 -1.0676,0.8075 -2.7289,1.482 -3.6914,1.5 -0.9625,0.017 -1.75,0.40824 -1.75,0.86914 0,0.4609 -1.6538,0.90056 -3.6757,0.97656 -2.0219,0.076 -4.1362,0.59901 -4.6993,1.16211 -0.5631,0.563 -1.8342,1.02344 -2.8242,1.02344 -2.4301,0 -2.2673,0.83859 0.6992,3.58789 5.03,4.6616 1.8592,9.15423 -5.5742,7.89843 -2.6911,-0.4547 -3.9258,-0.2987 -3.9258,0.4961 0,1.4001 -2.4837,4.01758 -3.8125,4.01758 -0.5251,0 -1.2018,0.94431 -1.5039,2.0996 -0.3021,1.15541 -0.9877,1.8311 -1.5234,1.5 -0.5458,-0.33749 -0.7683,0.18423 -0.5059,1.1875 0.2757,1.0544 -0.6582,3.00501 -2.2754,4.75 -2.3138,2.49672 -2.4805,3.01241 -1.0546,3.28711 0.9302,0.1791 3.2651,-0.19362 5.1875,-0.82812 1.9225,-0.6345 4.8007,-0.86613 6.3964,-0.51563 1.7183,0.3773 3.1807,0.1849 3.586,-0.4707 0.4512,-0.7302 1.0855,-0.77466 1.8613,-0.13086 0.6469,0.5369 2.9686,1.19037 5.1602,1.45117 3.3721,0.4014 14.8216,2.49178 21.9843,4.01368 1.1,0.2337 2.316,0.47506 2.7012,0.53906 0.3852,0.064 1.0958,-0.59163 1.5801,-1.45703 0.4843,-0.8654 1.9703,-2.12403 3.3008,-2.79883 1.5952,-0.809 2.3843,-2.03631 2.3203,-3.59961 l -0.098,-2.36914 1.9707,2.41992 1.9707,2.42188 -0.4004,-4.25 c -0.3019,-3.2138 -0.048,-4.25 1.0391,-4.25 2.0677,0 6.9019,-5.74838 7.6328,-9.07618 0.3424,-1.5586 1.4683,-3.10158 2.502,-3.42968 1.2044,-0.3821 1.662,-1.16243 1.2754,-2.16993 -0.3544,-0.9234 0.088,-1.95916 1.0722,-2.50976 0.9215,-0.5157 1.3921,-1.39473 1.0469,-1.95313 -0.345,-0.5583 0.3511,-1.92701 1.5469,-3.04101 1.1958,-1.1141 1.9336,-2.65308 1.6386,-3.42188 -0.2951,-0.7689 -0.028,-1.39843 0.5918,-1.39843 0.6201,0 3.3174,-2.25 5.9961,-5 2.6786,-2.75 5.0975,-5 5.375,-5 0.2775,0 1.8114,-1.33721 3.4082,-2.97071 2.6406,-2.7013 3.1857,-2.87146 6.0274,-1.88086 1.9119,0.6665 2.9305,1.59889 2.623,2.40039 -0.2765,0.7204 -0.8062,2.92053 -1.1758,4.89063 -0.3696,1.9702 -1.0709,3.82946 -1.5585,4.13086 -0.4877,0.3013 -0.8868,1.2015 -0.8868,2 0,0.7986 -0.8353,3.35795 -1.8574,5.68945 -4.3607,9.9473 -6.4348,15.74024 -5.6367,15.74024 0.2008,0 1.5645,-0.45608 3.0312,-1.01368 1.8474,-0.7024 2.4803,-1.50246 2.0586,-2.60156 -0.3827,-0.9971 0.3045,-2.30458 1.8516,-3.52148 1.3539,-1.065 2.2697,-2.48309 2.0352,-3.15039 -0.5148,-1.4647 0.9047,-3.30594 5.4101,-7.02344 3.3604,-2.7727 3.3665,-2.79298 0.6426,-2.10938 -2.5651,0.6438 -2.6737,0.54709 -1.6074,-1.44531 0.6286,-1.1745 1.6047,-2.13476 2.1699,-2.13476 0.5652,0 0.8957,-0.78846 0.7324,-1.75196 -0.2829,-1.6701 1.1077,-4.09524 5.7715,-10.06054 1.1557,-1.4781 1.894,-3.28668 1.6406,-4.01758 -0.2535,-0.731 0.4701,-1.98075 1.6074,-2.77735 1.1373,-0.7966 1.8355,-2.05041 1.5528,-2.78711 -0.2827,-0.7368 0.8603,-3.37678 2.541,-5.86718 1.6808,-2.4904 3.0566,-4.84914 3.0566,-5.24024 0,-0.3911 1.35,-2.41474 3,-4.49804 3.3985,-4.291 3.5365,-4.72684 1.6407,-5.17774 -1.0806,-0.257 -0.9488,-1.24536 0.6406,-4.82226 2.1938,-4.937 2.7934,-7.23869 2.8594,-10.9629 0.024,-1.35458 0.679,-3.36745 1.4531,-4.47265 1.8252,-2.6058 1.7767,-3.56445 -0.1758,-3.56445 -1.3389,0 -1.2568,-0.52397 0.5293,-3.41407 l 2.1094,-3.41406 -2.211,0.57813 -2.2129,0.57812 2.1836,-3.53125 c 2.7035,-4.3744 2.742,-5.16617 0.1836,-3.79687 -1.7497,0.9364 -2,0.76005 -2,-1.40625 0,-1.3619 0.4567,-2.75792 1.0157,-3.10352 0.559,-0.3454 0.7275,-1.09843 0.373,-1.67187 -0.3544,-0.57354 -0.024,-1.43592 0.7344,-1.91602 1.1165,-0.7071 1.0723,-0.87472 -0.2305,-0.88672 -1.2585,-0.012 -1.5569,-0.93198 -1.3711,-4.22656 0.1307,-2.3154 0.7381,-4.37618 1.3496,-4.58008 0.7307,-0.2435 0.6012,-0.88113 -0.3789,-1.86133 -2.1856,-2.1855 -1.8201,-5.99516 0.7578,-7.88476 l 2.25,-1.64844 -2.3476,0.69141 c -2.1053,0.61966 -2.2764,0.44709 -1.6367,-1.65821 0.3925,-1.2918 1.586,-3.30185 2.6523,-4.46875 l 1.9395,-2.12304 -2.8028,0.43359 -2.8047,0.43164 3.25,-2.88281 c 3.6976,-3.2805 4.0786,-4.26805 1.3731,-3.56055 -1.5696,0.4105 -1.794,0.0557 -1.3692,-2.16602 0.2794,-1.4617 1.3488,-3.18407 2.377,-3.82617 1.0282,-0.6421 1.8691,-1.51324 1.8691,-1.93554 0,-0.4224 -0.88,-0.21828 -1.955,0.45312 -2.4123,1.5065 -3.783,0.39091 -2.0645,-1.67969 0.7051,-0.8496 0.8202,-1.52343 0.2598,-1.52343 -2.1414,0 -0.6335,-5.97948 2.2734,-9.01368 1.6406,-1.7124 2.2565,-2.83544 1.3672,-2.49414 -2.8808,1.1054 -2.9824,-3.11918 -0.1426,-5.95898 3.0771,-3.077 2.2474,-3.18823 -3.3945,-0.45703 -2.7713,1.34164 -5.0755,1.82564 -6.5137,1.36914 l -2.2265,-0.70703 2.4492,-2.03516 c 1.3465,-1.1196 1.7036,-1.7659 0.7949,-1.4375 -2.1861,0.7901 -3.1098,-0.24533 -1.7168,-1.92383 1.4503,-1.7475 0.4599,-1.6985 -3.1231,0.1543 -2.9048,1.5022 -4.826,0.6368 -3.4668,-1.5625 0.3638,-0.5868 0.053,-0.98898 -0.6894,-0.89258 -1.9431,0.2524 -5.8516,-1.13272 -5.8516,-2.07422 0,-0.44 0.5625,-1.02724 1.25,-1.30469 0.6875,-0.27737 -0.2125,-0.54048 -2,-0.58398 -3.2044,-0.078 -4.4348,-1.51193 -2,-2.33203 0.6875,-0.2316 -0.3912,-0.73253 -2.3984,-1.11133 -4.0056,-0.7559 -6.4246,-2.89938 -5.3086,-4.70508 0.5297,-0.8571 -0.9072,-0.96768 -5.543,-0.42968 -4.3752,0.5078 -6.0583,0.40219 -5.5937,-0.34961 0.8677,-1.4039 -5.2656,-3.06598 -7.9063,-2.14258 -1.1,0.3846 -3.2489,1.00159 -4.7754,1.37109 -2.5548,0.6185 -2.7257,0.47814 -2.164,-1.75976 0.4821,-1.9208 0.1441,-2.57887 -1.6074,-3.13477 -1.7371,-0.5514 -1.919,-0.895 -0.836,-1.5918 0.8735,-0.5621 0.187,-0.65982 -1.8672,-0.26562 -4.4625,0.8563 -4.159,-1.00811 0.5,-3.07031 2.0625,-0.9129 5.775,-2.7966 8.25,-4.1875 3.7101,-2.0849 4.0851,-2.16422 2.1387,-0.44922 -3.2656,2.8773 -2.1135,2.60288 3.8613,-0.91992 5.0328,-2.9675 8.7012,-3.94219 7.4961,-1.99219 -0.6525,1.0557 4.055,-0.69547 6.2539,-2.32617 0.7992,-0.5927 1.25,-0.53952 1.25,0.14648 0,0.59 -0.7875,1.5312 -1.75,2.0918 -0.9625,0.5606 -1.4038,1.03213 -0.9804,1.04883 0.4234,0.017 2.6625,-1.16355 4.9746,-2.62305 4.0282,-2.5429 4.4975,-2.61053 11.2304,-1.64453 7.9756,1.1443 9.3195,0.83504 7.0879,-1.63086 -2.1618,-2.3887 -1.1693,-2.97549 4.2735,-2.52149 2.565,0.2139 4.1015,0.14179 3.414,-0.16211 -0.6875,-0.304 -1.25,-1.55093 -1.25,-2.76953 0,-1.6246 -0.9339,-2.55257 -3.5,-3.48047 -3.8985,-1.4098 -4.4839,-3.79161 -2,-8.13671 0.786,-1.375 1.4459,-5.15148 1.4649,-8.39258 0.034,-5.7178 -0.106,-6.03314 -4.7149,-10.61914 -4.8457,-4.8214 -10.1525,-7.04691 -19.75,-8.28321 l -4,-0.51562 3.0821,1.33789 c 3.6963,1.6069 8.2588,7.33292 10.0976,12.66992 3.2945,9.5626 -3.1177,18.56072 -13.9707,19.60352 -17.7446,1.705 -23.8257,-20.17793 -8.4375,-30.36133 5.2753,-3.491 3.813,-4.06677 -6.1367,-2.41797 -10.6766,1.7692 -12.6074,3.7287 -14.7461,14.9668 -0.9424,4.9524 -0.9578,6.66487 -0.062,7.23437 0.7734,0.4919 0.5756,0.75162 -0.5781,0.76172 -0.9625,0.01 -1.75,-0.7079 -1.75,-1.5918 0,-1.01021 -0.551,-1.39531 -1.4844,-1.03711 -3.3236,1.2754 -4.6232,-6.31057 -1.9629,-11.45507 0.8532,-1.6502 1.2786,-3.85454 0.9473,-4.89844 -0.4503,-1.4187 0.1688,-2.29726 2.4492,-3.47656 3.172,-1.64035 4.3201,-5.51902 1.8477,-5.28516 l 0,0 z m -92.9766,0.002 c -0.6178,0.065 -0.8164,0.81505 -0.8164,2.5918 0,1.6764 -0.4319,3.31568 -0.9609,3.64258 -0.6157,0.3805 -0.6157,1.50361 0,3.12304 1.4842,3.90363 1.1457,8.61378 -0.9063,12.63868 -1.8607,3.6497 -1.859,3.66975 0.3887,5.78125 2.396,2.251 2.3315,4.64806 -0.2344,8.63086 -1.125,1.746 -1.1412,2.26341 -0.086,2.75781 0.7148,0.33482 -0.9323,0.37534 -3.6602,0.0898 -2.727,-0.2853 -5.3708,-0.92944 -5.873,-1.43164 -0.8733,-0.8732 -2.8897,-0.33854 -8.416,2.22656 -1.2367,0.574 -2.5083,0.78275 -2.8262,0.46485 -0.3179,-0.318 -2.5481,0.29262 -4.9551,1.35742 -3.5955,1.5904 -5.9464,1.85245 -13.1738,1.46875 -4.8384,-0.2569 -9.0219,-0.54703 -9.2969,-0.64453 -0.275,-0.0977 -0.7861,-0.1406 -1.1367,-0.0957 -0.3506,0.044 -2.0381,-0.35156 -3.75,-0.88086 -1.7119,-0.5294 -4.5445,-1.40492 -6.2949,-1.94532 -4.3332,-1.3378 -2.5672,0.15589 5.0547,4.27539 3.5045,1.8941 7.6255,4.62772 9.1582,6.07422 2.6585,2.5093 6.3174,4.46921 8.4687,4.53711 0.55,0.017 0.175,-0.59292 -0.834,-1.35742 -1.7449,-1.3229 -1.7092,-1.47324 0.752,-3.08594 1.4935,-0.9786 3.5129,-1.45084 4.7813,-1.11914 1.2079,0.3159 2.6808,0.17149 3.2734,-0.32031 0.5925,-0.4918 3.2591,-1.15481 5.9238,-1.47461 2.6647,-0.3199 5.5283,-0.96519 6.3653,-1.43359 0.837,-0.4684 2.3892,-0.62631 3.4472,-0.34961 1.058,0.2767 2.9061,0.0386 4.1074,-0.5293 9.008,-4.2596 12.9074,-3.72964 8.0801,1.09766 -1.4675,1.4675 -3.0582,2.66797 -3.5332,2.66797 -0.475,0 -0.8633,0.40243 -0.8633,0.89453 0,1.2911 7.3841,-0.54718 7.8536,-1.95508 0.2131,-0.6416 1.2342,-1.89059 2.2675,-2.77539 1.0334,-0.8848 1.8789,-1.96489 1.8789,-2.40039 0,-0.4356 1.4625,-2.17634 3.25,-3.86914 1.9384,-1.8357 2.5357,-2.84927 1.4786,-2.50977 -1.0644,0.3416 -2.6091,-0.26533 -3.8633,-1.51953 -2.6692,-2.6692 -2.0863,-6.94029 2.1093,-15.46289 3.2931,-6.6892 3.7752,-9.40234 1.6719,-9.40234 -2.4441,0 -6.8939,-4.94453 -6.3437,-7.04883 0.2805,-1.0733 0.364,-1.95117 0.1855,-1.95117 -0.1785,0 -1.0362,-0.27353 -1.9062,-0.60743 -0.3072,-0.11789 -0.5598,-0.17199 -0.7657,-0.15039 z m -90.1504,1.23047 c -0.3695,0.042 -0.2042,0.37691 0.4004,1.10547 1.381,1.6639 1.6305,1.72076 2.3633,0.53516 0.3013,-0.4875 -0.3728,-1.12768 -1.498,-1.42188 -0.6293,-0.16455 -1.0435,-0.24395 -1.2657,-0.21875 z m 174.5626,8.52735 c 2.4035,0 -0.765,7.9974 -6.3399,16 -0.7292,1.0464 -0.717,2.35276 0.037,4.32226 l 1.0801,2.82422 2.5859,-3.07422 c 2.7778,-3.3012 5.0206,-4.1072 3.9961,-1.4375 -0.3441,0.8989 -0.3376,3.18277 0.018,5.07617 0.5595,2.9825 0.953,3.36574 2.9473,2.86524 1.275,-0.32 2.8926,-0.01 3.625,0.69531 0.7273,0.7001 5.3977,3.00565 10.3789,5.12305 4.9811,2.1174 9.9311,4.49821 11,5.29101 1.8916,1.403 1.8696,1.50526 -0.8614,3.87696 -1.5432,1.3401 -3.4557,2.4375 -4.25,2.4375 -0.7944,0 -1.4453,0.46962 -1.4453,1.04492 0,1.6908 -10.1713,5.93471 -14.25,5.94531 -2.0625,0.01 -3.75,-0.35102 -3.75,-0.79102 0,-0.44 0.5625,-1.3962 1.25,-2.125 0.9554,-1.012 0.9685,-1.42787 0.057,-1.76367 -0.6566,-0.2418 -0.9456,-1.0855 -0.6426,-1.875 0.3029,-0.7895 0.052,-1.43554 -0.5566,-1.43554 -0.6088,0 -1.1075,-0.7012 -1.1075,-1.5586 0,-0.8575 -0.429,-1.29385 -0.955,-0.96875 -0.5259,0.3251 -0.6782,1.31623 -0.3379,2.20313 0.7438,1.9383 -2.1573,4.32422 -5.2578,4.32422 -3.7535,0 -11.0483,-7.35037 -12.3243,-12.41797 -1.5509,-6.1594 -1.4065,-11.10177 0.3653,-12.57227 0.8191,-0.6796 1.2283,-1.65617 0.9121,-2.16797 -0.3163,-0.5118 -0.048,-1.56404 0.5957,-2.33984 1.7146,-2.066 5.0019,-8.73033 5.0019,-10.14063 0,-1.2452 6.8365,-7.36132 8.2286,-7.36132 z m -170.0782,7.56054 c -0.6361,-0.0232 -1.1504,0.43593 -1.1504,1.47071 0,1.0827 0.45,1.96875 1,1.96875 0.55,0 1,0.82568 1,1.83398 0,1.9981 0.8248,3.16602 2.2344,3.16602 0.4954,0 0.6096,-1.0125 0.2539,-2.25 -0.3557,-1.2375 -0.8532,-2.99651 -1.1055,-3.90821 -0.3943,-1.42498 -1.4145,-2.25145 -2.2324,-2.28125 z m 148.2012,0.55469 0,0 c 0.6077,-0.0609 0.6116,0.42668 0.1953,1.73828 -0.4745,1.495 -0.2032,2.34031 0.8847,2.75781 1.9825,0.7611 2.0124,2.77368 0.066,4.38868 -0.825,0.6847 -1.5,2.0907 -1.5,3.125 0,1.0343 -1.274,3.92854 -2.832,6.43164 -2.3542,3.7823 -3.0344,4.30878 -4.0234,3.11718 -1.5753,-1.8981 -1.1868,-11.48903 0.5351,-13.21093 0.7458,-0.7458 1.2594,-1.71826 1.1406,-2.16016 -0.3605,-1.3415 1.2577,-5.30273 2.1661,-5.30273 0.468,0 1.6134,-0.29415 2.5468,-0.65235 0.3441,-0.13205 0.6155,-0.21212 0.8184,-0.23242 z m 114.1973,3.96289 c -0.6294,-0.0318 -2.0394,0.81544 -4.0489,2.48438 l -3,2.49218 3.4668,-1.42773 c 1.9068,-0.7857 3.6325,-1.92277 3.834,-2.52735 0.2221,-0.66639 0.1258,-1.00238 -0.2519,-1.02148 z m -68.2911,1.71875 c -0.1289,-0.0566 -0.2009,0.0103 -0.2109,0.21875 -0.09,2.9259 3.6429,8.34804 7.0313,10.21484 4.1403,2.2811 9.5744,1.86578 13.6621,-1.04492 3.0539,-2.1745 5.9893,-6.78994 4.9687,-7.81054 -0.345,-0.345 -2.783,1.44862 -5.418,3.98632 -5.0336,4.8481 -10.291,6.38873 -10.291,3.01563 0,-1.3071 -0.2818,-1.38766 -1.455,-0.41406 -1.98,1.6433 -3.1533,0.71185 -6.0137,-4.78125 -1.0056,-1.93095 -1.8854,-3.21509 -2.2735,-3.38477 z m 68.3536,6.49219 c -0.568,-0.0948 -1.974,1.22012 -5.4161,4.5664 -5.0418,4.9015 -5.6009,5.80616 -4.25,6.88086 1.3749,1.0939 1.2645,1.46922 -0.9453,3.22852 l -2.5,1.99023 2.3575,0.0215 c 1.6797,0.016 2.1914,0.45444 1.7812,1.52344 -0.8713,2.2707 1.2945,1.7955 3.418,-0.75 2.427,-2.9102 2.4112,-3.68497 -0.059,-3.03907 -3.0236,0.7907 -2.3523,-0.91123 1.4629,-3.71093 3.5116,-2.577 4.4994,-4.57704 4.5234,-9.14454 0,-0.93969 -0.033,-1.5061 -0.3711,-1.5664 l 0,0 z m -255.0782,0.93359 c -0.062,0.002 -0.1076,0.02 -0.1406,0.0527 -0.7137,0.7137 5.5469,5.72461 7.1524,5.72461 0.7988,0 1.1584,-0.6124 0.8418,-1.4375 -0.3032,-0.7902 -1.0927,-1.22841 -1.754,-0.97461 -0.6613,0.2537 -2.2298,-0.49527 -3.4843,-1.66407 -1.0978,-1.0227 -2.1852,-1.71857 -2.6153,-1.70117 z m 170.7129,0.46485 c 1.6277,-0.0855 4.1037,0.9005 9.9707,3.68945 5.1056,2.427 11.0832,4.90712 13.2832,5.51172 5.6337,1.5481 16.1137,1.37555 24.584,-0.40625 3.9679,-0.8347 7.4356,-1.29679 7.707,-1.02539 0.8886,0.8882 -2.2216,3.82366 -5.5078,5.19726 -3.6458,1.524 -19.5288,1.67429 -25.6211,0.24219 -4.7841,-1.1246 -17.2829,-6.53805 -20.7753,-8.99805 -1.437,-1.0122 -2.8647,-1.58654 -3.1739,-1.27734 -0.3092,0.3092 -1.3427,0.1258 -2.2969,-0.4082 -1.5969,-0.8938 -1.5674,-1.06148 0.3907,-2.10938 0.448,-0.2398 0.8969,-0.38751 1.4394,-0.41601 z m -12.9687,3.5625 c -0.4226,0.27593 -0.098,4.84354 0.709,7.75 0.5349,1.925 0.9432,3.90017 0.9082,4.38867 -0.035,0.4885 0.5372,1.26355 1.2714,1.72265 0.986,0.6158 1.4192,0.0436 1.6524,-2.17578 0.2293,-2.1832 -0.3197,-3.52761 -2,-4.89844 -2.0965,-1.71037 -2.1505,-1.95361 -0.5664,-2.57031 2.1,-0.8176 2.3237,-2.46679 0.334,-2.46679 -0.7791,0 -1.6445,-0.5625 -1.9219,-1.25 -0.1162,-0.28793 -0.213,-0.4469 -0.293,-0.4961 -0.035,-0.0213 -0.066,-0.0212 -0.094,-0.004 z m -15.791,3.10156 c 1.2358,-0.0768 1.6674,2.49513 0.5254,4.6289 -0.6288,1.1749 -1.3073,4.14993 -1.5079,6.61133 -0.3774,4.6315 -2.4442,10.40821 -3.7226,10.40821 -0.4017,0 -1.4334,-1.3634 -2.2949,-3.0293 -1.505,-2.9104 -1.4333,-3.31626 1.875,-10.38086 1.8936,-4.0435 3.9412,-7.6577 4.5488,-8.0332 0.2071,-0.12798 0.3997,-0.19408 0.5762,-0.20508 z m -67.0625,16.64844 c -0.6268,0 -0.8934,1.2514 -0.6368,3 0.2422,1.65 0.7261,3 1.0762,3 0.3501,0 0.6367,-1.35 0.6367,-3 0,-1.65 -0.4838,-3 -1.0761,-3 z m 70.582,30.20898 c 1.1835,0.0673 2.7402,0.76172 4.4082,2.10938 l 2.9141,2.35351 -2.1641,2.16406 c -2.6198,2.6197 -3.3941,2.67937 -5.416,0.41407 -0.8592,-0.9625 -1.7157,-2.875 -1.9043,-4.25 -0.2645,-1.92758 0.6404,-2.87762 2.1621,-2.79102 z m -106.9863,12.18945 c -1.0757,0.064 -2.1425,0.61189 -3.1192,1.63867 -1.4316,1.50512 -1.9426,12.47827 -0.6758,14.50977 0.3574,0.5764 0.5207,2.2639 0.3575,3.75 -0.1631,1.4862 0.1182,2.70313 0.625,2.70313 0.5068,0 0.6249,0.4779 0.2636,1.0625 -0.3613,0.5847 0.1063,1.9068 1.0391,2.9375 0.9327,1.0307 1.4315,2.30362 1.1074,2.82812 -0.3242,0.5245 0.5321,1.68804 1.9024,2.58594 1.3703,0.8978 2.4902,2.25889 2.4902,3.02539 0,0.7665 0.5625,1.65566 1.25,1.97656 0.8928,0.4166 0.9241,0.74021 0.1152,1.12891 -0.8198,0.3939 -0.8474,1.65863 -0.1054,4.58203 0.6975,2.7648 0.6949,5.09674 -0.012,7.39844 -0.5677,1.849 -0.7981,3.59641 -0.5117,3.88281 0.6337,0.63369 3.9072,-1.03224 4.7696,-2.42774 0.343,-0.5549 2.2814,-1.87755 4.3066,-2.93945 2.0252,-1.062 4.9208,-2.96873 6.4355,-4.23633 l 2.754,-2.30468 -2.4727,-5 c -1.6421,-3.3201 -2.4829,-6.73687 -2.5039,-10.16797 -0.033,-5.4733 2.5816,-12.93615 5.332,-15.21875 1.7858,-1.4821 2.1891,-4.65442 0.7071,-5.57032 -0.512,-0.3164 -1.2285,-0.0966 -1.5899,0.48829 -0.4327,0.7001 -1.7972,0.38824 -3.998,-0.91016 -1.8379,-1.0844 -4.1929,-1.74836 -5.2325,-1.47656 -1.0396,0.2719 -2.4361,-0.16626 -3.1054,-0.97266 -0.6757,-0.8142 -2.1065,-1.23326 -3.2149,-0.94336 -1.0979,0.2871 -2.7758,-0.18493 -3.7304,-1.04883 -1.0111,-0.915 -2.0969,-1.34065 -3.1739,-1.28125 l -0.01,0 0,0 z m 64.834,28.76563 0,0 c 0.054,-0.0126 0.1117,-0.008 0.1777,0.0137 0.6152,0.2051 1.1189,0.81146 1.1289,1.34766 0.01,0.5363 0.4922,1.55677 1.0821,2.26757 0.7451,0.8985 0.7537,1.60964 0.027,2.33594 -0.5746,0.5746 -1.2585,0.66753 -1.5195,0.20703 -1.1906,-2.0999 -1.7035,-5.98272 -0.8984,-6.17187 z m 95.5664,5.66992 c 3.1943,0.14318 18.8577,17.42119 23.3964,26.16602 6.2348,12.0134 7.4657,17.98029 6.2168,30.15039 -1.1888,11.5842 -5.943,24.20502 -8.7168,23.14062 -1.1815,-0.4533 -1.3279,0.12742 -0.7754,3.07422 0.4643,2.4749 0.314,3.63477 -0.4726,3.63477 -0.6353,0 -1.0831,-0.5625 -0.9941,-1.25 0.544,-4.1888 -1.1372,-4.80434 -1.7715,-0.64844 -0.1721,1.1281 -0.9866,2.72487 -1.8086,3.54687 -0.822,0.822 -1.4942,2.07551 -1.4942,2.78711 0,0.7115 -0.9758,2.53333 -2.1679,4.04883 l -2.1661,2.75586 2.1661,-0.6875 c 1.2992,-0.4124 2.1679,-0.26089 2.1679,0.37891 0,0.5871 -0.4128,1.06836 -0.9179,1.06836 -0.505,0 -1.5175,0.21245 -2.25,0.47265 -0.7324,0.2602 -2.1142,0.0162 -3.0703,-0.54297 -1.3065,-0.7639 -1.6232,-1.91909 -1.2735,-4.65039 0.2559,-1.9985 1.0247,-3.97944 1.709,-4.40234 0.6843,-0.4229 0.9321,-1.08155 0.5488,-1.46485 -0.3833,-0.38328 -1.3271,-0.175 -2.0957,0.4629 -1.3827,1.1475 -4.6504,0.579 -4.6504,-0.8086 0,-1.1401 4.5063,-5.0664 5.8145,-5.0664 0.652,0 1.1855,-0.91395 1.1855,-2.03125 0,-1.1172 0.675,-2.29083 1.5,-2.60743 1.7763,-0.6816 2.0109,-4.02499 0.3223,-4.58789 -0.6898,-0.2299 -0.845,-0.92895 -0.375,-1.68945 0.6555,-1.06013 0.9519,-1.05657 1.6172,0.0195 0.645,1.0437 1.2512,0.92026 2.9199,-0.58984 1.91,-1.7285 2.0471,-2.60629 1.4766,-9.45899 -0.346,-4.1551 -0.8212,-8.90468 -1.0567,-10.55468 -0.2355,-1.65 -0.6303,-5.66377 -0.8769,-8.91797 -0.2467,-3.2543 -0.9805,-6.24449 -1.6309,-6.64649 -0.6508,-0.4019 -0.9352,-1.67768 -0.6328,-2.83398 0.3024,-1.1563 0.1475,-2.10156 -0.3437,-2.10156 -1.349,0 -4.0295,-7.08074 -3.4141,-9.01954 0.2963,-0.9337 -0.145,-2.26789 -0.9824,-2.96289 -0.8375,-0.695 -1.5235,-1.77499 -1.5235,-2.40039 0,-0.6254 -0.8439,-1.66264 -1.875,-2.30664 -1.3291,-0.8303 -1.7284,-1.93774 -1.3711,-3.80664 0.3681,-1.9253 -0.069,-3.03745 -1.625,-4.12695 -2.3034,-1.6134 -2.6203,-3.05204 -1.1757,-5.33594 0.095,-0.15033 0.2539,-0.21703 0.4668,-0.20703 z m -23.1446,37.69141 c 5.0311,0.023 6.0787,0.3777 8.1172,2.75 1.2872,1.498 2.7572,2.72461 3.2676,2.72461 1.9186,0 9.2667,7.864 9.9277,10.625 0.3786,1.5814 1.1069,3.40814 1.6192,4.06054 1.057,1.3458 -0.6569,5.31446 -2.295,5.31446 -0.5592,0 -1.4751,-1.31966 -2.0371,-2.93164 -0.6459,-1.8529 -3.5768,-4.79562 -7.9687,-8 -3.8212,-2.78802 -7.2817,-5.06836 -7.6895,-5.06836 -0.4078,0 -1.5866,-1.125 -2.6191,-2.5 -1.1006,-1.4655 -2.8824,-2.5 -4.3067,-2.5 -1.9474,0 -2.3655,-0.4464 -2.1093,-2.25 0.2897,-2.0404 0.8557,-2.24861 6.0937,-2.22461 z m 15.627,32.53515 0,0.004 c -0.8499,0.1448 -1.9024,1.34875 -1.9024,2.49805 0,1.9615 1.6386,1.82532 2.416,-0.20118 0.3478,-0.9037 0.4252,-1.85016 0.1739,-2.10156 -0.099,-0.0995 -0.2147,-0.16045 -0.3399,-0.18945 -0.1095,-0.0302 -0.2262,-0.0308 -0.3476,-0.01 z m -1.4492,5.40821 c -0.1112,-0.01 -0.2366,-0.005 -0.3711,0.0137 -0.1793,0.0253 -0.3758,0.0772 -0.5821,0.15625 -0.825,0.3166 -1.5,0.94052 -1.5,1.38672 0,0.4462 -0.2629,1.63507 -0.584,2.64257 -0.4538,1.4265 -0.1218,1.30911 1.5,-0.52929 1.1472,-1.2984 2.084,-2.74695 2.084,-3.21875 0,-0.2653 -0.2129,-0.42217 -0.5468,-0.45117 z m -5.0118,6.53125 c -0.8574,0 -1.2813,0.45 -0.9414,1 0.3399,0.55 1.0411,1 1.5586,1 0.5175,0 0.9414,-0.45 0.9414,-1 0,-0.55 -0.7011,-1 -1.5586,-1 z m -85.9414,19.0039 c -0.8899,0 -1.3399,0.45 -1,1 0.3399,0.55 0.7899,1 1,1 0.2101,0 0.6601,-0.45 1,-1 0.3399,-0.55 -0.1101,-1 -1,-1 z"
       id="path10360"
       inkscape:connector-curvature="0" />
    <path
       style="fill:#ffffff"
       d="m 1510.5098,368.0918 c -1.7572,-0.0154 -3.8177,0.0301 -6.3946,0.10937 -10.9767,0.3378 -11.8322,0.52343 -18.7929,4.07813 -6.8282,3.4871 -17.2061,11.33442 -17.2071,13.01172 -3e-4,0.4125 0.675,0.75 1.5,0.75 1.1049,0 1.5,1.15245 1.5,4.37695 0,2.6712 0.5847,4.86345 1.5,5.62305 0.825,0.6847 1.5,2.27319 1.5,3.52929 0,1.763 0.4401,2.1684 1.9278,1.7793 1.7892,-0.4679 13.0008,3.29418 17.5722,5.89648 4.5733,2.6033 11.8035,3.02171 26.0313,1.50391 2.2168,-0.2365 5.3668,-1.08818 7,-1.89258 1.6332,-0.8045 3.7562,-1.2846 4.7187,-1.0664 1.2315,0.2792 1.75,-0.21864 1.75,-1.67774 0,-2.4796 0.8155,-2.59022 3.7774,-0.51562 2.0512,1.4367 2.222,1.4175 2.209,-0.25 -0.026,-3.411 -1.2215,-6.30664 -2.6036,-6.30664 -1.7082,0 -1.804,-2.18031 -0.1679,-3.81641 0.6683,-0.6683 1.231,-3.82804 1.25,-7.02344 0.052,-8.7508 -2.9626,-12.19999 -13.7071,-15.67969 -5.5514,-1.7979 -8.0915,-2.38348 -13.3632,-2.42968 z m -1.3789,5.28906 c 1.6888,-0.003 3.3997,0.35531 5.125,1.07812 8.8184,3.6943 13.6143,16.11094 9.1445,23.67774 -1.6528,2.7979 -4.2852,3.9676 -4.2852,1.9043 0,-0.55 -0.459,-1 -1.0195,-1 -0.5655,0 -0.7595,1.02774 -0.4375,2.31054 0.731,2.9125 -2.6827,4.68946 -9.0117,4.68946 -3.4066,0 -5.3334,-0.73068 -8.7031,-3.29688 -8.2892,-6.3129 -8.9248,-16.48044 -1.5079,-24.11914 3.3782,-3.47916 6.9801,-5.23714 10.6954,-5.24414 z m 2.1093,6.27148 c -1.6899,0.0351 -3.125,0.528 -3.125,1.53907 0,0.5519 1.5518,0.86837 3.4473,0.70507 1.8955,-0.1633 3.7698,0.0274 4.166,0.42383 1.102,1.102 1.3801,0.86442 0.7891,-0.67578 -0.5094,-1.32744 -3.1046,-2.03729 -5.2774,-1.99219 z m -4.205,3.51954 c -0.1199,-0.0636 -0.6499,0.19663 -1.67,0.74023 -2.3269,1.2399 -2.9005,2.12891 -1.373,2.12891 0.4826,0 1.4951,-0.74907 2.25,-1.66407 0.6222,-0.7543 0.913,-1.14159 0.793,-1.20507 z M 1497,390.42383 c -0.5464,-0.10331 -0.7992,0.78809 -0.3867,2.74219 1.3601,6.4442 8.4508,11.39164 14.5019,10.11914 1.375,-0.2892 2.687,-0.68707 2.916,-0.88477 0.2294,-0.1976 -0.6937,-0.35937 -2.0527,-0.35937 -3.3851,0 -11.7004,-5.44394 -12.8223,-8.39454 -0.7682,-2.02145 -1.6098,-3.11934 -2.1562,-3.22265 z"
       id="path10322"
       inkscape:connector-curvature="0" />
    <path
       style="fill:#ffffff"
       d="m 1561.0352,563.45703 c -1.0816,-0.003 -1.8981,0.58575 -3.4219,1.99805 -2.1088,1.9548 -2.5842,3.10294 -2.0938,5.05664 0.3678,1.4655 0.206,2.5293 -0.3847,2.5293 -0.5604,0 -1.0291,-1.2375 -1.041,-2.75 -0.012,-1.5125 -0.8,-3.72873 -1.75,-4.92383 -1.5841,-1.9922 -2.287,-2.11237 -8.4434,-1.45117 -3.6933,0.3966 -6.9116,0.92532 -7.1524,1.17382 -0.2408,0.2484 -0.5941,1.79194 -0.7851,3.43164 -0.2738,2.3503 0.076,3.05326 1.6523,3.31836 4.9692,0.8355 27.5871,8.44427 33,11.10157 7.358,3.6121 8.1181,3.67981 9.6387,0.84961 0.6648,-1.2375 1.4795,-3.56699 1.8106,-5.17579 0.3312,-1.6089 1.2217,-3.13051 1.9785,-3.38281 1.0634,-0.3544 1.2271,0.28596 0.7207,2.81836 -0.9795,4.8972 0.594,6.20542 5.1621,4.29492 5.3614,-2.2424 25.7397,-7.2495 32.4394,-7.9707 l 5.75,-0.61914 0,-3.71289 0,-3.71289 -7.75,-0.61133 c -6.8689,-0.541 -8.0801,-0.3704 -10.6543,1.5 -2.256,1.6388 -3.2899,1.86995 -4.6328,1.03125 -1.1977,-0.7479 -4.7124,-0.79871 -11.4414,-0.16211 -6.5006,0.615 -11.0873,0.57076 -13.8672,-0.13477 -2.2845,-0.57988 -6.1793,-1.44096 -8.6543,-1.91406 -2.475,-0.4732 -5.9099,-1.36848 -7.6347,-1.98828 -1.0503,-0.3775 -1.7963,-0.59375 -2.4453,-0.59375 z m 70.7988,2.08399 -0.1094,3.74804 -0.1094,3.75196 5.25,0 c 2.8875,-3e-4 5.2833,-0.3375 5.3243,-0.75 0.041,-0.4125 0.2598,-1.73942 0.4863,-2.94922 0.5151,-2.7521 0.071,-3.01067 -5.9512,-3.44727 l -4.8906,-0.35351 z m -100.1309,0.59765 c -0.7033,-0.0182 -1.7719,0.18915 -3.4629,0.52735 -4.1006,0.8201 -4.0213,3.13774 0.125,3.65234 1.7875,0.2218 3.7502,0.4745 4.3614,0.5625 0.6668,0.096 0.9193,-0.84064 0.6328,-2.33984 -0.3281,-1.7159 -0.4842,-2.37235 -1.6563,-2.40235 z m 116.9688,3.38867 c -0.6382,0.0524 -1.5519,0.50897 -2.5196,1.47657 -1.12,1.1201 -2.0371,2.26211 -2.0371,2.53711 0,1.2287 2.8497,0.3239 4.4102,-1.4004 1.5058,-1.6639 1.21,-2.70028 0.1465,-2.61328 z m -41.7715,0.57813 0,0 c 0.8373,-0.006 2.1793,2.07985 2.1993,3.68555 0.025,2.0267 -1.7924,1.42772 -2.5078,-0.82618 -0.363,-1.1414 -0.3708,-2.3656 -0.016,-2.7207 0.094,-0.0936 0.2027,-0.13787 0.3223,-0.13867 z"
       id="path10246"
       inkscape:connector-curvature="0" />
  </g>
</svg>
